<?xml version="1.0" encoding="utf-8"?>
<!-- Generator: Adobe Illustrator 25.3.1, SVG Export Plug-In . SVG Version: 6.00 Build 0)  -->
<svg version="1.1" id="레이어_1" xmlns="http://www.w3.org/2000/svg" xmlns:xlink="http://www.w3.org/1999/xlink" x="0px"
	 y="0px" viewBox="0 0 1920 1080" style="enable-background:new 0 0 1920 1080;" xml:space="preserve">
<g>
	<path d="M226.05,171.43c-1.35,6.32-2.71,12.64-4.06,18.96c-1.48,6.89-3.01,8.18-10.21,8.23c-9.17,0.05-18.33,0.1-27.5-0.05
		c-2.92-0.05-3.89,0.45-3.87,3.82c0.15,21.59-0.04,43.19-0.12,64.78c-0.01,4.15-0.03,8.31-0.01,12.46c0.02,3.51-1.71,5.23-5.2,5.23
		c-13.5,0-27,0.09-40.5-0.06c-4.47-0.05-7.5-4.11-7.66-9.99c-0.17-6.1-0.04-12.22-0.04-19.36c-4.29,4.26-6.53,8.78-10.4,11.96
		c-13.26,10.89-28.8,14-45.38,13.63c-4.32-0.1-8.68-0.01-12.91-1.15c-1.09-0.29-2.73-0.05-2.94-1.39c-0.28-1.69,1.58-1.89,2.66-2.45
		c3.44-1.79,7.06-2.78,11.04-2.62c7.7,0.32,15.3-0.58,22.75-2.56c21.33-5.68,33.82-21.5,33.99-43.75c0.21-27.5,0.19-55,0.02-82.49
		c-0.13-21.49-12.46-37.69-33.2-43.36c-14.93-4.08-30.04-3.95-44.86,0.75c-19.31,6.13-30.54,21.31-30.65,41.51
		c-0.16,27.83,0,55.66-0.08,83.49c-0.02,7.3,1.45,14.21,4.38,20.86c0.34,0.76,0.65,1.53,1,2.29c0.81,1.74,0.71,3.49-1.03,4.35
		c-2.06,1.01-2.44-1.19-3.07-2.34c-4.24-7.78-6.14-16.29-6.21-25c-0.24-27.5-0.35-55-0.01-82.49c0.34-27.32,18.91-46.64,46.92-50.13
		c11.76-1.46,23.25-0.89,34.65,2.19c12.4,3.35,22.35,10.13,29.47,20.92c0.91,1.39,1.86,2.75,2.81,4.11c0.07,0.1,0.3,0.08,0.57,0.14
		c1.11-2.24-0.13-4.13-0.98-6.02c-1.9-4.26-3.94-8.46-5.86-12.71c-3.44-7.63-1.73-10.36,6.78-10.45c10.66-0.12,21.33-0.04,32-0.04
		c3.83,0,7.67-0.07,11.5,0.03c7.47,0.2,10.28,2.99,10.31,10.45c0.08,17.66,0.07,35.32,0.1,52.97c0,0.6,0.17,1.2,1.05,1.89
		c1.49-6.9,3-13.8,4.47-20.7c8.14-38.29,16.26-76.59,24.42-114.88c1.37-6.42,2.92-7.68,9.53-7.74c9-0.07,18-0.05,27,0.01
		c3.37,0.02,6.38,0.56,8.85,3.57c2.7,3.29,8.09,1.9,9.13-2.16c0.78-3.08,2.93-4.12,5.49-4.14c14.49-0.12,29.15-1.36,43.41,0.48
		c7.24,0.93,13.57-1.83,20.5-0.95c7.05,0.89,14.31,0.15,21.47,0.21c8.25,0.06,11.46,3.46,11.46,12.18c0.02,55,0,109.99,0.05,164.99
		c0.01,12.06-1.3,10.65,10.66,10.68c24,0.06,48,0.01,72,0.04c8.61,0.01,12.3,3.43,12.12,12.08c-0.15,7.44,1.34,15-1.3,22.31
		c-0.16,0.45-0.29,1.08-0.1,1.45c4.57,8.68,1.73,18,2.36,27.01c0.11,1.54,0.11,2.88,1.37,4.05c3.82,3.54,4.97,8.01,4.72,13.13
		c-0.27,5.49-0.01,11-0.18,16.49c-0.09,3.1-0.79,6.05-4.5,6.91c-2.21,0.51-2.55,1.87-2.53,4.06c0.18,15.66,0.17,31.33,0.18,46.99
		c0,2.85,0.65,5.46,1.56,8.21c2.72,8.23,1.69,16.79,0.8,25.2c-0.32,3.02-3.03,4.18-6,4.2c-4.33,0.02-8.67,0.04-13,0.04
		c-42.5,0.01-85-0.12-127.49,0.13c-7.88,0.04-13.92-2.47-18.61-8.62c-0.2-0.26-0.39-0.56-0.65-0.76
		c-11.28-9.09-13.8-21.21-12.61-34.93c1.13-13.06,0.08-26.17,0.08-39.25c0-2.61-0.36-4.71-2.8-6.44c-2.34-1.66-3.5-4.33-3.48-7.41
		c0.06-7.5,0.03-15-0.02-22.5c-0.03-4.68,2.36-6.58,6.86-6.5c5.48,0.09,10.97,0.02,17.22,0.02c-2.4-3.98-5.23-6.72-8.1-9.35
		c-6.94-6.37-10.31-14.01-9.77-23.56c0.64-11.44-5.25-21.09-9.35-31.19c-0.97-2.39-2.82-3.04-5.61-2.95
		c-9.99,0.32-19.99,0.27-29.99,0.17c-6.86-0.07-9.9-2.84-11.09-9.71c-0.51-2.95-0.83-5.94-1.3-8.9c-0.44-2.78-0.96-5.54-1.44-8.32
		C226.76,171.58,226.41,171.51,226.05,171.43z M372.73,295.54c0,0.01,0,0.02,0,0.03c27.16,0,54.32,0,81.48,0
		c7.57,0,7.58-0.01,7.62-7.78c0.02-3.5,0.01-7,0.01-10.5c-0.01-7.46-0.01-7.47-7.42-7.47c-18.33,0-36.66,0-54.99,0.02
		c-2.79,0-5.32,0.05-5.61-3.89c-0.32-4.4,1.83-5.38,5.68-5.36c16.5,0.11,32.99,0.06,49.49,0.04c6.7-0.01,6.79-0.12,6.86-6.58
		c0.03-2.83,0-5.67,0-8.5c0.01-7.96,0.01-7.97-8.01-7.97c-36.49,0-72.98-0.02-109.47,0.04c-3.53,0.01-5.62-0.75-5.65-4.95
		c-0.03-4.2,2-5.06,5.56-5.02c9,0.1,18,0.03,26.99,0.03c27.83,0,55.65-0.06,83.48,0.07c4.4,0.02,6.54-1.17,6.16-5.94
		c-0.32-3.97-0.23-8-0.02-11.99c0.21-3.98-1.54-5.19-5.33-5.19c-53.49,0.08-106.97,0.05-160.46,0.08c-5.15,0-5.41,0.63-3.69,5.62
		c2.43,7.02,6.66,13.66,5.57,21.52c-1.21,8.63,2.12,15.19,8.47,20.64c1.26,1.08,2.47,2.27,3.5,3.56c2.85,3.58,6.54,4.68,11.02,4.61
		c10.99-0.17,22,0.06,32.99-0.09c4.43-0.06,5.42,2.1,5.01,5.95c-0.39,3.76-3.14,3.3-5.57,3.3c-18.66,0.03-37.33,0.2-55.98-0.08
		c-5.19-0.08-6.81,1.67-6.4,6.61c0.35,4.14,0.06,8.33,0.08,12.49c0.04,6.65,0.05,6.68,6.64,6.68
		C318.07,295.55,345.4,295.54,372.73,295.54z M372.94,303.57c-22.5,0-45,0-67.5,0c-14.37,0-14.37,0-14.44,14.54
		c-0.04,7.51-0.04,7.53,7.41,7.53c36.16,0.01,72.33,0,108.49,0.05c2.48,0,5.82-0.83,5.96,3.35c0.15,4.59-3.41,3.69-6.06,3.71
		c-12.83,0.07-25.67,0.04-38.5,0.04c-23.83,0.01-47.66,0.09-71.5-0.06c-4.22-0.03-6.22,1.1-5.88,5.63c0.3,3.98,0.55,8.06,0,11.98
		c-1.64,11.78,2.2,20.9,11.37,28.53c4.11,3.42,7.97,5.57,13.3,5.56c45.5-0.06,91-0.07,136.49,0.05c4.24,0.01,6.21-1.17,5.84-5.67
		c-0.29-3.48-0.05-6.99-0.08-10.49c-0.05-6.56-0.13-6.65-6.77-6.65c-36.5-0.01-73,0-109.49,0c-1.67,0-3.33-0.02-5-0.05
		c-2.39-0.04-3.76-1.08-3.66-3.66c0.09-2.26,1.27-3.32,3.47-3.35c1.67-0.02,3.33-0.06,5-0.06c35.83,0,71.66-0.06,107.49,0.09
		c4.55,0.02,6.16-1.42,6.07-6.01c-0.23-12.66-0.05-25.33-0.08-38c-0.01-6.93-0.15-7.05-6.95-7.06
		C422.94,303.55,397.94,303.56,372.94,303.57z M226.09,138.93c1.56,1.44,1.47,3.2,1.7,4.74c2.16,13.81,4.32,27.62,6.25,41.47
		c0.53,3.82,1.97,5.57,6.04,5.46c8.32-0.22,16.66-0.17,24.98-0.02c3.82,0.07,5.02-1.44,4.45-5.14
		c-4.15-26.81-8.15-53.63-12.32-80.44c-1.92-12.31-2.04-12.29-14.55-14.17c-6.71-1.01-6.76-1.14-5.29-8
		c4.12-19.21,8.14-38.44,12.37-57.62c0.91-4.13,0.05-5.72-4.46-5.56c-7.98,0.29-16,0.35-23.98-0.02c-4.72-0.22-6.26,1.76-7.15,6.05
		c-6.42,30.97-13.05,61.9-19.62,92.84c-4.66,21.98-9.34,43.97-13.99,65.95c-1.27,5.99-1.18,6.06,5.09,6.07
		c7.99,0.01,15.99-0.17,23.98,0.07c3.79,0.11,5.3-1.47,6.01-4.98c2.64-13.22,5.44-26.41,8.29-39.59
		C224.4,143.69,224.4,141.1,226.09,138.93z M173.73,187.65c0.01,0,0.02,0,0.03,0c0-27.97-0.08-55.94,0.08-83.91
		c0.02-4.48-1.26-6.18-5.94-6.09c-13.31,0.25-26.64,0.07-39.96,0.09c-5.83,0.01-5.8,0.03-3.25,5.48c3.92,8.4,7.58,16.51,7.47,26.45
		c-0.49,47.28-0.15,94.56-0.27,141.84c-0.01,4.53,1.33,6.17,5.97,6.03c9.81-0.29,19.65-0.34,29.46,0.02c5.08,0.19,6.54-1.46,6.5-6.5
		C173.62,243.26,173.73,215.45,173.73,187.65z M314.76,107.08c0.01,0,0.02,0,0.02,0c0-28.14-0.09-56.27,0.09-84.41
		c0.03-4.6-1.48-6.1-6.03-6c-11.32,0.25-22.64,0.06-33.96,0.09c-5.8,0.01-5.68,0-3.18,5.51c2.53,5.57,6.87,10.6,7.03,16.93
		c0.36,13.98,0.12,27.97,0.16,41.95c0.01,3.23-1.69,4.43-4.69,4.42c-3.33-0.02-6.66,0.13-9.99,0c-3.84-0.15-5.47,0.98-4.6,5.26
		c1.41,7.01,2.35,14.11,3.36,21.19c1.06,7.45,1,7.46,8.63,7.49c7.25,0.03,7.32,0.08,7.33,7.16c0.01,20.98,0,41.96,0,62.93
		c0,6.84,0.02,6.85,7.01,6.86c7.49,0.01,15-0.29,22.47,0.11c5.17,0.28,6.49-1.63,6.45-6.58
		C314.65,162.35,314.76,134.71,314.76,107.08z M324.07,106.61c0.01,0,0.02,0,0.03,0c0,27.98,0.08,55.95-0.08,83.93
		c-0.03,4.54,1.31,6.2,5.96,6.02c7.98-0.32,15.99-0.3,23.97,0c4.56,0.17,6.17-1.39,6.09-5.99c-0.22-13.65-0.08-27.31-0.08-40.96
		c0-42.13-0.06-84.26,0.11-126.4c0.02-5.06-1.58-6.76-6.61-6.54c-7.64,0.35-15.33,0.37-22.97-0.01c-5.07-0.25-6.56,1.47-6.52,6.52
		C324.19,50.99,324.07,78.8,324.07,106.61z"/>
	<path d="M188.79,343.11c0-6.33-0.09-12.65,0.02-18.98c0.2-11.27,5.73-18.47,16.54-21.56c6.04-1.72,12.23-1.73,18.29-0.39
		c10.38,2.29,16.53,8.48,17.59,19.04c1.44,14.41,1.3,28.94,0.07,43.36c-0.92,10.78-7.15,17.16-17.71,19.55
		c-5.71,1.29-11.6,1.32-17.32-0.18c-11.75-3.1-17.24-10.17-17.44-22.36c-0.1-6.16-0.02-12.32-0.02-18.48
		C188.81,343.11,188.8,343.11,188.79,343.11z M209.11,309.31c-4.8,0-11.9,6.94-12.5,13.31c-0.65,6.92-0.35,13.93-0.42,20.9
		c-0.01,1.16,0.18,2.54,1.76,2.5c1.56-0.04,1.67-1.42,1.68-2.58c0.05-5.98,0.09-11.96,0.05-17.95c-0.03-4.89,1.77-8.73,6.11-11.19
		c1.3-0.73,2.68-1.31,4.02-1.98c0.78-0.39,1.45-0.97,1.25-1.91C210.85,309.43,210,309.25,209.11,309.31z"/>
	<path d="M188.78,248.49c0-6.49-0.11-12.97,0.02-19.46c0.24-11.92,6.75-19.61,18.47-22.01c12.06-2.48,23.9,1.44,29.04,9.51
		c2.7,4.24,3.58,8.95,3.63,13.81c0.11,11.81,0.11,23.62,0.01,35.42c-0.1,11.9-4.7,18.94-14.52,22.63
		c-10.96,4.12-24.88,1.46-31.52-6.15c-3.54-4.06-4.95-9.01-5.05-14.29c-0.12-6.48-0.03-12.97-0.03-19.46
		C188.8,248.49,188.79,248.49,188.78,248.49z M214.59,268.88c2.14-8.73,5.53-15.43,13.36-19.16c2.64-1.26-0.09-2.31-1.16-2.87
		c-4.14-2.15-7.27-5.25-9.17-9.5c-1.15-2.59-2.05-5.29-3.48-9.03c-2.01,8.95-5.45,15.47-13.09,19.09c-2.64,1.25-0.54,2.34,0.75,2.97
		c4.2,2.04,7.4,5.07,9.28,9.35C212.24,262.41,213.18,265.19,214.59,268.88z"/>
	<path d="M83.95,186.37c0,12.99,0.16,25.98-0.05,38.96c-0.16,9.67-8.42,15.38-17.22,12.07c-4.73-1.78-7.84-5.24-7.85-10.51
		c-0.08-27.14-0.11-54.28,0.03-81.43c0.03-6.71,5.7-11.79,12.39-11.83c6.79-0.04,12.4,5.1,12.59,12.28
		c0.29,10.98,0.12,21.98,0.14,32.97c0.01,2.5,0,5,0,7.49C83.97,186.37,83.96,186.37,83.95,186.37z"/>
	<path d="M439.83,152.18c-0.01,13.15-0.12,26.3,0.06,39.45c0.06,4.51-1.57,6.22-6.13,6.13c-15.76-0.31-13.63,1.73-13.8-13.37
		c-0.07-6.48-0.12-6.55-6.82-6.61c-7.32-0.06-7.32-0.06-6.45-7.56c0.13-1.16,0.4-2.31,0.4-3.47c0.02-5.57,2.42-8.25,8.27-7.34
		c3.51,0.54,4.78-1.46,4.59-4.75c-0.1-1.66-0.1-3.33,0-4.99c0.2-3.3-1.04-5.1-4.58-4.79c-3.89,0.34-5.04-1.55-4.29-5.17
		c0.57-2.77,0.97-5.57,1.32-8.37c0.34-2.73,1.15-4.82,4.47-4.84c2.37-0.02,2.97-1.69,3.05-3.74c0.14-3.69-0.12-7.22-1.9-10.65
		c-2.74-5.3-2.43-5.62,3.7-5.66c4.16-0.03,8.34,0.23,12.48-0.06c4.49-0.31,5.76,1.68,5.71,5.87
		C439.74,125.54,439.84,138.86,439.83,152.18z"/>
	<path d="M387.78,107.56c2.16,0,4.33,0,6.49,0c12.94,0,18.94,7.08,17,19.9c-3.06,20.23-6.16,40.46-8.97,60.73
		c-0.59,4.25-2.43,5.68-6.45,5.68c-3.14,0-6.3,0.46-9.43,0.92c-4.29,0.63-5.14-1.32-4.53-5.15c2.54-15.94,4.94-31.89,7.38-47.85
		c0.6-3.95,0.98-7.94,1.81-11.84c0.7-3.3-0.62-4.18-3.61-4.11c-3.83,0.1-7.66-0.04-11.49-0.01c-2.42,0.02-3.71-1.14-4-3.5
		c-0.06-0.5-0.11-0.99-0.17-1.49c-1.47-13.29-1.47-13.29,11.96-13.29C385.12,107.56,386.45,107.56,387.78,107.56z"/>
	<path d="M246.66,253.16c0-9.32-0.1-18.65,0.04-27.97c0.08-5.23-0.14-10.27-3.04-14.89c-1.96-3.12-0.73-4.59,2.78-4.58
		c4.99,0.02,10,0.23,14.98-0.08c4.72-0.3,6.22,1.99,6.15,6.19c-0.1,6.8,0.15,13.62-0.31,20.4c-0.31,4.55,0.96,6.74,5.7,6.12
		c4.58-0.59,6.5,1.42,6.02,5.96c-0.12,1.15,0,2.33,0,3.49c-0.04,7.45-0.03,7.58-7.41,8c-3.27,0.19-4.35,1.7-4.33,4.72
		c0.05,8.8-0.2,17.6,0.11,26.39c0.13,3.69-0.76,5.24-4.58,5.02c-3.82-0.22-7.66-0.17-11.48-0.02c-3.49,0.14-4.68-1.43-4.64-4.79
		c0.11-11.32,0.04-22.64,0.04-33.96C246.68,253.16,246.67,253.16,246.66,253.16z"/>
	<path d="M268.13,344.65c0,12.16-0.15,24.33,0.08,36.48c0.08,4.4-1.48,6.07-5.81,5.73c-3.15-0.24-6.34-0.2-9.49-0.01
		c-3.88,0.24-5.27-1.34-5.24-5.24c0.13-16.66,0.03-33.32,0.02-49.98c0-4.33-0.14-8.67,0.04-12.99c0.19-4.6-0.6-8.83-2.8-12.97
		c-2.32-4.36-1.81-4.94,3.36-5c4.66-0.06,9.35,0.25,13.99-0.08c5.08-0.36,6.22,2.13,6.17,6.58c-0.15,12.49-0.05,24.98-0.05,37.48
		C268.3,344.65,268.21,344.65,268.13,344.65z"/>
	<path d="M461.08,152.12c0,13.32-0.11,26.64,0.06,39.96c0.05,4.02-1.22,5.73-5.41,5.65c-16.48-0.31-13.76,1.96-13.87-13.6
		c-0.16-23.64-0.06-47.29-0.05-70.93c0-6.66,0.12-6.83,6.64-6.76c14.75,0.17,12.46-2.03,12.62,12.71
		c0.12,10.99,0.02,21.98,0.02,32.97C461.1,152.12,461.09,152.12,461.08,152.12z"/>
	<path d="M114.51,353.58c4.17,1.76,5.46-1.35,6.97-4.54c4.71-9.93,9.69-19.74,14.32-29.71c1.36-2.93,3.04-3.39,5.89-2.65
		c10.64,2.76,21.31,5.44,32,8.01c3.41,0.82,4.34,2.15,2.65,5.55c-6,12.08-11.68,24.32-17.64,36.43c-2.85,5.8-11.45,9.91-17.3,8.56
		c-2.32-0.54-4.55-1.34-5.35-3.94c-0.85-2.74,0.29-4.88,2.25-6.69c3.25-3.01,7.24-4.54,11.48-3.72c3.78,0.73,5.41-0.66,6.9-3.77
		c5.29-10.96,4.76-8.59-4.92-11.16c-4.83-1.28-9.8-2.03-14.59-3.43c-3.93-1.15-6.18-0.35-7.73,3.66c-1.74,4.49-4.01,8.79-6.31,13.04
		c-3.61,6.67-11.72,10.49-18.01,8.72c-5.43-1.52-6.76-6.13-2.82-10.21C105.53,354.38,109.71,353.46,114.51,353.58z M161.82,337.41
		c2.66,0.44,4.07,0.71,4.61-1.02c0.43-1.38-0.32-2.27-1.61-2.59c-8.02-1.99-16.05-3.99-24.09-5.87c-1.4-0.33-2.7,0.34-2.95,1.95
		c-0.25,1.58,1.15,1.91,2.21,2.17C147.69,333.99,155.4,335.85,161.82,337.41z"/>
	<path d="M62.74,269.86c-0.22,1.57-1.45,2.19-2.7,2.65c-13.68,5.06-19.68,16.09-22.95,29.31c-0.48,1.95-0.13,5.26-2.73,5.21
		c-2.52-0.04-2.19-3.32-2.68-5.3c-3.29-13.22-9.31-24.23-23-29.27c-1.25-0.46-2.52-1.1-2.59-2.71c-0.07-1.63,1.13-2.36,2.4-2.83
		c14.02-5.23,20.23-16.49,23.32-30.17c0.11-0.49,0.2-0.99,0.37-1.45c0.45-1.2,0.43-3,2.05-3.11c2.03-0.13,2.06,1.9,2.4,3.23
		c1.17,4.51,2.29,9.01,4.31,13.27c3.86,8.17,9.64,14.26,18.11,17.7C62.18,267.68,62.87,268.47,62.74,269.86z"/>
	<path d="M404.3,45.54c1.5,0.28,1.59,1.54,1.84,2.64c2.02,8.67,6.17,15.66,14.72,19.48c2.9,1.3,2.01,3.14-0.36,4.19
		c-8.22,3.63-12.16,10.42-14.22,18.69c-0.31,1.24-0.24,3.11-1.87,3.12c-1.65,0.01-1.58-1.86-1.89-3.1
		c-2.07-8.26-5.99-15.07-14.2-18.72c-2.68-1.19-3.36-3.05-0.14-4.42c8.3-3.53,12.21-10.34,14.33-18.59
		C402.82,47.6,402.75,46.11,404.3,45.54z"/>
	<path d="M23.87,153.09c0-4.99,0.05-9.97-0.01-14.96c-0.13-11.29,5.84-19.03,14.63-25.08c1.45-1,3.43-2.25,4.76-0.05
		c1.12,1.87-0.6,3.06-1.99,3.97c-10.05,6.55-13.82,15.98-13.39,27.69c0.33,9.13,0.08,18.28,0.01,27.42
		c-0.01,1.55,0.33,3.88-2.01,3.84c-2.31-0.03-1.93-2.35-1.95-3.9c-0.08-6.31-0.03-12.63-0.03-18.94
		C23.89,153.09,23.88,153.09,23.87,153.09z"/>
	<path d="M103.37,315.49c-0.27,2.46-2.06,3.12-3.92,3.05c-3.93-0.13-5.87,1.3-5.6,5.47c0.12,1.86-0.53,3.87-2.87,3.94
		c-2.39,0.07-3.08-1.92-2.99-3.79c0.19-4-1.37-5.8-5.48-5.61c-1.83,0.09-3.91-0.44-3.97-2.83c-0.07-2.41,1.97-3.02,3.82-2.96
		c3.93,0.13,5.86-1.31,5.62-5.48c-0.11-1.84,0.49-3.89,2.85-3.96c2.38-0.07,3.13,1.96,3,3.79c-0.31,4.49,1.89,5.84,5.96,5.67
		C101.51,312.73,103,313.56,103.37,315.49z"/>
	<path d="M441.75,87.29c2.67,2.51,5.32,4.85,7.73,7.41c0.42,0.45-0.72,1.46-1.52,1.6c-2.36,0.4-3.99,1.37-4.12,4.05
		c-0.04,0.86-1.08,1.94-1.54,1.53c-2.53-2.22-4.01-5.53-7.49-6.83c-0.54-0.2,0.03-1.79,0.85-1.91c3.07-0.44,4.45-2.4,5.23-5.12
		C441.01,87.66,441.6,87.42,441.75,87.29z"/>
	<path d="M296.48,227.23c0.62-2.28-0.56-4.38-1.4-6.54c-0.78-2.02-1.66-4.01-2.31-6.07c-0.58-1.82-1.93-4.23,0.53-5.3
		c2.61-1.13,3.26,1.6,4,3.33c1.95,4.6,3.79,9.22,4.03,14.35c0.11,2.36,0.65,4.68-1.34,6.52c-0.68,0.63-1.57,0.61-2.25-0.04
		C295.96,231.76,296.06,229.61,296.48,227.23z"/>
	<path d="M223.84,31.33c-0.91,3.95-1.94,8.31-2.91,12.68c-1.89,8.59-3.7,17.2-5.65,25.78c-0.39,1.74-1.02,3.98-3.49,3.22
		c-2.11-0.65-1.48-2.67-1.13-4.29c2.74-12.65,5.48-25.31,8.27-37.95c0.39-1.75,0.76-3.97,3.25-3.57
		C224.08,27.51,223.79,29.41,223.84,31.33z"/>
</g>
</svg>
